<?xml version="1.0" encoding="UTF-8" standalone="no"?>
<!DOCTYPE svg PUBLIC "-//W3C//DTD SVG 1.1//EN" "http://www.w3.org/Graphics/SVG/1.1/DTD/svg11.dtd">
<svg version="1.1" xmlns="http://www.w3.org/2000/svg" xmlns:xlink="http://www.w3.org/1999/xlink" preserveAspectRatio="xMidYMid meet" viewBox="0 0 131 91" width="131" height="91"><defs><path d="M43.66 2L1 23.33L1 66L43.66 87.33L86.33 66L86.33 23.33L43.66 2Z" id="c1xZkLYIUt"></path><path d="M87.16 2L44.66 23.25L44.66 65.75L87.16 87L129.66 65.75L129.66 23.25L87.16 2Z" id="a36xlPQnjm"></path><path d="M43.66 2L86.33 23.33L86.33 66L43.66 87.33L1 66L1 23.33L43.66 2Z" id="a5hFmnd2DO"></path></defs><g><g><g><use xlink:href="#c1xZkLYIUt" opacity="1" fill="#8be122" fill-opacity="1"></use><g><use xlink:href="#c1xZkLYIUt" opacity="1" fill-opacity="0" stroke="#569806" stroke-width="0" stroke-opacity="1"></use></g></g><g><use xlink:href="#a36xlPQnjm" opacity="1" fill="#66b900" fill-opacity="1"></use><g><use xlink:href="#a36xlPQnjm" opacity="1" fill-opacity="0" stroke="#569806" stroke-width="2" stroke-opacity="1"></use></g></g><g><g><filter id="shadow10932443" x="-8" y="-7" width="104.33" height="104.33" filterUnits="userSpaceOnUse" primitiveUnits="userSpaceOnUse"><feFlood></feFlood><feComposite in2="SourceAlpha" operator="in"></feComposite><feGaussianBlur stdDeviation="1"></feGaussianBlur><feOffset dx="1" dy="1" result="afterOffset"></feOffset><feFlood flood-color="#000000" flood-opacity="0.5"></feFlood><feComposite in2="afterOffset" operator="in"></feComposite><feMorphology operator="dilate" radius="1"></feMorphology><feComposite in2="SourceAlpha" operator="out"></feComposite></filter><path d="M43.66 2L86.33 23.33L86.33 66L43.66 87.33L1 66L1 23.33L43.66 2Z" id="a5fSKidgZy" fill="white" fill-opacity="1" filter="url(#shadow10932443)"></path></g><use xlink:href="#a5hFmnd2DO" opacity="1" fill="#75d255" fill-opacity="0"></use><g><use xlink:href="#a5hFmnd2DO" opacity="1" fill-opacity="0" stroke="#569806" stroke-width="2" stroke-opacity="1"></use></g></g></g></g></svg>