<svg id="Layer_1" data-name="Layer 1" xmlns="http://www.w3.org/2000/svg" viewBox="0 0 169.48 202.97"><defs><style>.cls-1{fill:#aa6728;}.cls-1,.cls-2,.cls-3,.cls-4,.cls-5{fill-rule:evenodd;}.cls-2{fill:#d38729;}.cls-3{fill:#ffc400;}.cls-4{fill:#ffd740;}.cls-5{fill:#ffa400;}</style></defs><title>Untitled-2</title><polygon class="cls-1" points="127.11 73.39 84.74 48.92 84.74 101.49 127.11 125.95 127.11 73.39 127.11 73.39"/><polygon class="cls-2" points="127.11 24.46 84.74 48.92 127.11 73.39 169.48 48.92 127.11 24.46 127.11 24.46"/><polygon class="cls-3" points="84.74 101.49 42.37 125.95 84.74 150.41 127.11 125.95 84.74 101.49 84.74 101.49"/><polygon class="cls-4" points="84.74 97.85 169.48 48.92 169.48 154.05 84.74 202.97 84.74 97.85 84.74 97.85"/><polygon class="cls-3" points="84.74 97.85 0 48.92 0 154.05 84.74 202.97 84.74 97.85 84.74 97.85"/><polygon class="cls-5" points="84.74 0 0 48.92 84.74 97.85 169.48 48.92 84.74 0 84.74 0"/></svg>
